<svg xmlns="http://www.w3.org/2000/svg" width="280" height="580" viewBox="0 0 280 580" font-family="Helvetica,Arial,sans-serif">
  <rect x="2" y="2" width="276" height="576" rx="22" fill="#0A0A0A" stroke="#2E2E2E"/>
  <!-- live header -->
  <rect x="16" y="22" width="28" height="28" rx="4" fill="none" stroke="#1F1F1F"/>
  <path d="M34 30 L28 36 L34 42" fill="none" stroke="#C0C0C0" stroke-width="1.6"/>
  <circle cx="118" cy="36" r="3" fill="#00FFFF"/>
  <text x="128" y="40" font-size="9" font-weight="600" letter-spacing="2" fill="#00FFFF">EN VIVO</text>
  <text x="176" y="40" font-size="10" font-weight="600" fill="#FFFFFF">00:23:48</text>
  <!-- segmented bar -->
  <g>
    <rect x="16" y="62" width="11" height="4" fill="#00FFFF"/><rect x="29" y="62" width="11" height="4" fill="#00FFFF"/>
    <rect x="42" y="62" width="11" height="4" fill="#00FFFF"/><rect x="55" y="62" width="11" height="4" fill="#00FFFF"/>
    <rect x="68" y="62" width="11" height="4" fill="#00FFFF"/><rect x="81" y="62" width="11" height="4" fill="#00FFFF"/>
    <rect x="94" y="62" width="11" height="4" fill="#00FFFF"/><rect x="107" y="62" width="11" height="4" fill="#FFFFFF"/>
    <rect x="120" y="62" width="11" height="4" fill="#1A1A1A"/><rect x="133" y="62" width="11" height="4" fill="#1A1A1A"/>
    <rect x="146" y="62" width="11" height="4" fill="#1A1A1A"/><rect x="159" y="62" width="11" height="4" fill="#1A1A1A"/>
    <rect x="172" y="62" width="11" height="4" fill="#1A1A1A"/><rect x="185" y="62" width="11" height="4" fill="#1A1A1A"/>
    <rect x="198" y="62" width="11" height="4" fill="#1A1A1A"/><rect x="211" y="62" width="11" height="4" fill="#1A1A1A"/>
    <rect x="224" y="62" width="11" height="4" fill="#1A1A1A"/><rect x="237" y="62" width="11" height="4" fill="#1A1A1A"/>
  </g>
  <text x="16" y="84" font-size="8" font-weight="500" letter-spacing="1.2" fill="#8A8A8A">EJ 02 / 05</text>
  <text x="140" y="84" font-size="8" font-weight="500" letter-spacing="1.2" fill="#FFFFFF" text-anchor="middle">PRESS DE BANCA</text>
  <text x="264" y="84" font-size="8" font-weight="500" fill="#8A8A8A" text-anchor="end">40%</text>
  <!-- hero -->
  <text x="20" y="116" font-size="9" font-weight="600" letter-spacing="2.2" fill="#5A5A5A">EJECUTANDO AHORA</text>
  <text x="20" y="142" font-size="22" font-weight="800" letter-spacing="1.5" fill="#FFFFFF">PRESS DE BANCA</text>
  <text x="20" y="162" font-size="9" font-weight="500" letter-spacing="1.2" fill="#8A8A8A">3 × 8 · TEMPO 3-0-1-0 · RPE 8</text>
  <!-- logger card -->
  <rect x="16" y="176" width="248" height="118" rx="4" fill="#111111" stroke="#1F1F1F"/>
  <text x="32" y="200" font-size="8" font-weight="600" letter-spacing="2" fill="#00FFFF">SERIE 03 · REGISTRO</text>
  <text x="248" y="200" font-size="8" font-weight="500" fill="#5A5A5A" text-anchor="end">2 DE 4 HECHAS</text>
  <!-- stepper -->
  <rect x="32" y="214" width="216" height="34" rx="2" fill="none" stroke="#2E2E2E"/>
  <text x="50" y="236" font-size="16" fill="#FFFFFF" text-anchor="middle">−</text>
  <text x="140" y="235" font-size="13" font-weight="700" fill="#FFFFFF" text-anchor="middle">142.5 KG</text>
  <text x="230" y="235" font-size="16" fill="#FFFFFF" text-anchor="middle">+</text>
  <rect x="32" y="258" width="216" height="22" rx="2" fill="#00FFFF"/>
  <text x="140" y="273" font-size="9" font-weight="700" letter-spacing="1.4" fill="#0A0A0A" text-anchor="middle">REGISTRAR SERIE · 142.5 × 8</text>
  <!-- rest timer -->
  <rect x="16" y="306" width="248" height="60" rx="4" fill="#111111" stroke="#00FFFF"/>
  <text x="32" y="328" font-size="8" font-weight="600" letter-spacing="2" fill="#00FFFF">DESCANSO · OBJETIVO 90 SEG</text>
  <text x="32" y="356" font-size="22" font-weight="800" fill="#00FFFF">01:18</text>
  <rect x="120" y="344" width="128" height="2" fill="#1A1A1A"/><rect x="120" y="344" width="100" height="2" fill="#00FFFF"/>
  <text x="120" y="360" font-size="7" font-weight="500" letter-spacing="1" fill="#8A8A8A">RESPIRA · 4 INHALA · 6 EXHALA</text>
  <!-- table -->
  <text x="20" y="392" font-size="9" font-weight="600" letter-spacing="2.2" fill="#8A8A8A">SERIES · COMPLETAS</text>
  <rect x="16" y="402" width="248" height="118" rx="4" fill="#111111" stroke="#1F1F1F"/>
  <g font-size="8" letter-spacing="2" fill="#5A5A5A" font-weight="600">
    <text x="36" y="420">Nº</text><text x="96" y="420">REPS</text><text x="156" y="420">CARGA</text><text x="216" y="420">RPE</text>
  </g>
  <line x1="16" y1="428" x2="264" y2="428" stroke="#1F1F1F"/>
  <g font-size="9" fill="#FFFFFF">
    <text x="36" y="446" fill="#5A5A5A">01</text><text x="96" y="446">8</text><text x="156" y="446">142.5</text><text x="216" y="446">7.5</text>
    <text x="36" y="470" fill="#5A5A5A">02</text><text x="96" y="470">8</text><text x="156" y="470">142.5</text><text x="216" y="470">8.0</text>
  </g>
  <rect x="16" y="478" width="248" height="22" fill="#0D1717"/>
  <g font-size="9" fill="#00FFFF" font-weight="700">
    <text x="36" y="493" fill="#5A5A5A">03</text><text x="96" y="493">8</text><text x="156" y="493">142.5</text><text x="216" y="493">8.5</text>
  </g>
  <!-- tab bar -->
  <line x1="0" y1="528" x2="280" y2="528" stroke="#1F1F1F"/>
  <g font-size="7" font-weight="700" letter-spacing="1" text-anchor="middle">
    <text x="36" y="556" fill="#5A5A5A">HOY</text>
    <text x="92" y="556" fill="#5A5A5A">PLAN</text>
    <text x="148" y="556" fill="#00FFFF">ENTRENAR</text>
    <text x="204" y="556" fill="#5A5A5A">PROGRESO</text>
    <text x="252" y="556" fill="#5A5A5A">TÚ</text>
  </g>
</svg>
