<svg xmlns="http://www.w3.org/2000/svg" width="280" height="580" viewBox="0 0 280 580" font-family="Helvetica,Arial,sans-serif">
  <rect x="2" y="2" width="276" height="576" rx="22" fill="#F5F5F3" stroke="#CBCBC4"/>
  <!-- brand bar (light) -->
  <text x="20" y="40" font-size="13" font-weight="800" letter-spacing="1.6" fill="#0A0A0A">HYPERTRO<tspan fill="#0094A8">FIT</tspan></text>
  <rect x="186" y="28" width="74" height="16" rx="2" fill="none" stroke="#0077C2"/>
  <circle cx="196" cy="36" r="3" fill="#0077C2"/>
  <text x="204" y="40" font-size="8" font-weight="700" letter-spacing="1.4" fill="#272727">ENTRENADOR</text>
  <line x1="0" y1="56" x2="280" y2="56" stroke="#E3E3DF"/>
  <!-- header -->
  <text x="20" y="84" font-size="9" font-weight="600" letter-spacing="2.2" fill="#565656">ENTRENADOR · PERFIL</text>
  <text x="20" y="110" font-size="24" font-weight="800" letter-spacing="2" fill="#0A0A0A">TÚ</text>
  <!-- identity card -->
  <rect x="16" y="126" width="248" height="104" rx="4" fill="#FFFFFF" stroke="#E3E3DF"/>
  <rect x="32" y="142" width="44" height="44" rx="4" fill="#ECECE9" stroke="#0077C2"/>
  <text x="54" y="170" font-size="15" font-weight="800" fill="#0077C2" text-anchor="middle">DO</text>
  <text x="88" y="158" font-size="13" font-weight="700" letter-spacing="1" fill="#0A0A0A">DANIEL · ORTEGA</text>
  <text x="88" y="174" font-size="8" font-weight="500" letter-spacing="1.2" fill="#565656">ENTRENADOR · 6 AÑOS</text>
  <line x1="32" y1="196" x2="248" y2="196" stroke="#E3E3DF"/>
  <text x="44" y="212" font-size="7" letter-spacing="1.4" fill="#8C8C8C" text-anchor="middle">ATLETAS</text>
  <text x="44" y="226" font-size="14" font-weight="800" fill="#0A0A0A" text-anchor="middle">14</text>
  <text x="140" y="212" font-size="7" letter-spacing="1.4" fill="#8C8C8C" text-anchor="middle">ACTIVOS</text>
  <text x="140" y="226" font-size="14" font-weight="800" fill="#0A0A0A" text-anchor="middle">12</text>
  <text x="232" y="212" font-size="7" letter-spacing="1.4" fill="#8C8C8C" text-anchor="middle">ADHERENCIA</text>
  <text x="232" y="226" font-size="14" font-weight="800" fill="#0A0A0A" text-anchor="middle">86%</text>
  <!-- roster -->
  <text x="20" y="256" font-size="9" font-weight="600" letter-spacing="2.2" fill="#565656">MIS · ATLETAS</text>
  <text x="248" y="256" font-size="8" font-weight="500" fill="#8C8C8C" text-anchor="end">5 TOTAL</text>
  <rect x="16" y="266" width="248" height="254" rx="4" fill="#FFFFFF" stroke="#E3E3DF"/>
  <!-- rows -->
  <g>
    <rect x="30" y="280" width="32" height="32" rx="4" fill="#ECECE9" stroke="#1F9D57"/><text x="46" y="301" font-size="11" font-weight="800" fill="#1F9D57" text-anchor="middle">AT</text>
    <text x="74" y="294" font-size="10" font-weight="700" letter-spacing="0.6" fill="#0A0A0A">A. TORRES</text>
    <text x="74" y="307" font-size="8" fill="#8C8C8C">Hipertrofia · Sem 08</text>
    <text x="240" y="296" font-size="12" font-weight="800" fill="#1F9D57" text-anchor="end">92%</text>
    <text x="240" y="307" font-size="6" fill="#8C8C8C" text-anchor="end">ADHERENCIA</text>
  </g>
  <line x1="16" y1="328" x2="264" y2="328" stroke="#E3E3DF"/>
  <g>
    <rect x="30" y="338" width="32" height="32" rx="4" fill="#ECECE9" stroke="#A8780A"/><text x="46" y="359" font-size="11" font-weight="800" fill="#A8780A" text-anchor="middle">MR</text>
    <text x="74" y="352" font-size="10" font-weight="700" letter-spacing="0.6" fill="#0A0A0A">M. REYES</text>
    <text x="74" y="365" font-size="8" fill="#8C8C8C">Fuerza · Sem 04</text>
    <text x="240" y="354" font-size="12" font-weight="800" fill="#A8780A" text-anchor="end">78%</text>
    <text x="240" y="365" font-size="6" fill="#8C8C8C" text-anchor="end">ADHERENCIA</text>
  </g>
  <line x1="16" y1="386" x2="264" y2="386" stroke="#E3E3DF"/>
  <g>
    <rect x="30" y="396" width="32" height="32" rx="4" fill="#ECECE9" stroke="#1F9D57"/><text x="46" y="417" font-size="11" font-weight="800" fill="#1F9D57" text-anchor="middle">LV</text>
    <text x="74" y="410" font-size="10" font-weight="700" letter-spacing="0.6" fill="#0A0A0A">L. VEGA</text>
    <text x="74" y="423" font-size="8" fill="#8C8C8C">Recomp · Sem 12</text>
    <text x="240" y="412" font-size="12" font-weight="800" fill="#1F9D57" text-anchor="end">95%</text>
    <text x="240" y="423" font-size="6" fill="#8C8C8C" text-anchor="end">ADHERENCIA</text>
  </g>
  <line x1="16" y1="444" x2="264" y2="444" stroke="#E3E3DF"/>
  <g>
    <rect x="30" y="454" width="32" height="32" rx="4" fill="#ECECE9" stroke="#D23B3B"/><text x="46" y="475" font-size="11" font-weight="800" fill="#D23B3B" text-anchor="middle">JS</text>
    <text x="74" y="468" font-size="10" font-weight="700" letter-spacing="0.6" fill="#0A0A0A">J. SOLÍS</text>
    <text x="74" y="481" font-size="8" fill="#8C8C8C">Hipertrofia · Sem 02</text>
    <text x="240" y="470" font-size="12" font-weight="800" fill="#D23B3B" text-anchor="end">64%</text>
    <text x="240" y="481" font-size="6" fill="#8C8C8C" text-anchor="end">ADHERENCIA</text>
  </g>
  <!-- tab bar (light) -->
  <line x1="0" y1="528" x2="280" y2="528" stroke="#E3E3DF"/>
  <g font-size="7" font-weight="700" letter-spacing="1" text-anchor="middle">
    <text x="36" y="556" fill="#8C8C8C">HOY</text>
    <text x="92" y="556" fill="#8C8C8C">PLAN</text>
    <text x="148" y="556" fill="#8C8C8C">ENTRENAR</text>
    <text x="204" y="556" fill="#8C8C8C">PROGRESO</text>
    <text x="252" y="556" fill="#0094A8">TÚ</text>
  </g>
</svg>
